<?xml version="1.0" standalone="no"?>
<!DOCTYPE svg PUBLIC "-//W3C//DTD SVG 20010904//EN"
 "http://www.w3.org/TR/2001/REC-SVG-20010904/DTD/svg10.dtd">
<svg version="1.0" xmlns="http://www.w3.org/2000/svg"
 width="1911.000000pt" height="1911.000000pt" viewBox="0 0 1911.000000 1911.000000"
 preserveAspectRatio="xMidYMid meet">
<metadata>
Created by potrace 1.14, written by Peter Selinger 2001-2017
</metadata>
<g transform="translate(0.000000,1911.000000) scale(0.100000,-0.100000)"
fill="#000000" stroke="none">
<path d="M9079 19106 c-2 -2 -58 -7 -124 -10 -66 -4 -138 -9 -160 -11 -22 -3
-69 -7 -105 -10 -65 -6 -97 -9 -200 -20 -150 -17 -198 -23 -344 -45 -72 -11
-141 -22 -152 -24 -12 -3 -39 -7 -60 -10 -22 -4 -75 -13 -119 -21 -44 -8 -95
-17 -112 -20 -18 -3 -61 -12 -95 -20 -35 -8 -74 -16 -88 -19 -36 -7 -53 -11
-175 -40 -60 -15 -119 -28 -130 -31 -164 -34 -870 -255 -1020 -319 -16 -8 -91
-37 -165 -66 -74 -29 -153 -61 -175 -70 -44 -19 -184 -81 -255 -113 -115 -51
-499 -243 -625 -313 -252 -138 -381 -216 -673 -408 -209 -137 -423 -288 -542
-383 -8 -6 -62 -49 -120 -94 -112 -88 -328 -266 -345 -284 -5 -6 -50 -47 -100
-91 -213 -189 -560 -533 -725 -719 -29 -33 -71 -81 -94 -106 -230 -256 -535
-653 -763 -994 -107 -160 -283 -440 -283 -451 0 -3 -8 -18 -19 -32 -16 -24
-57 -94 -153 -267 -73 -132 -304 -609 -368 -760 -40 -93 -78 -184 -86 -201
-58 -131 -234 -630 -298 -844 -37 -127 -97 -342 -101 -365 -2 -11 -17 -74 -33
-140 -17 -66 -36 -147 -43 -180 -7 -33 -13 -62 -14 -65 -1 -3 -5 -23 -10 -45
-4 -22 -9 -49 -12 -60 -4 -22 -29 -155 -37 -195 -15 -81 -46 -272 -51 -315 -3
-27 -8 -59 -10 -70 -3 -11 -7 -42 -10 -70 -2 -27 -7 -61 -9 -75 -2 -14 -7 -54
-10 -90 -4 -36 -9 -85 -12 -110 -7 -66 -12 -124 -19 -220 -3 -47 -8 -110 -10
-140 -22 -254 -22 -1044 -1 -1220 2 -14 7 -74 11 -135 4 -60 8 -117 10 -125 2
-8 6 -49 9 -90 4 -41 9 -88 11 -105 2 -16 7 -59 10 -95 3 -36 8 -77 11 -92 7
-48 17 -113 29 -198 13 -86 39 -239 55 -320 11 -52 22 -111 25 -130 3 -19 15
-75 26 -125 12 -49 23 -101 25 -115 5 -27 79 -315 113 -443 60 -222 182 -587
289 -862 481 -1244 1216 -2370 2163 -3314 147 -147 269 -263 369 -351 47 -41
87 -78 90 -81 5 -5 81 -69 235 -198 753 -629 1739 -1198 2690 -1553 140 -52
493 -173 535 -184 8 -2 67 -19 130 -39 63 -19 124 -37 135 -39 11 -2 61 -15
110 -29 266 -74 773 -179 1075 -222 220 -32 223 -32 295 -40 33 -3 76 -8 95
-10 19 -2 91 -9 160 -15 69 -6 145 -12 170 -15 256 -25 1088 -25 1305 0 17 2
73 6 125 10 93 6 364 35 525 56 396 51 1219 226 1360 289 11 5 47 16 80 25
196 54 625 206 890 315 1198 495 2241 1193 3150 2106 129 130 281 289 342 360
10 12 45 52 79 90 378 428 792 1005 1081 1509 147 257 308 566 384 737 22 49
57 129 79 180 23 50 49 109 59 132 69 151 210 529 286 766 81 252 196 658 211
750 3 14 9 39 14 55 11 38 96 463 115 580 11 67 35 227 40 265 3 25 8 56 10
70 2 14 6 54 10 90 4 36 8 76 10 90 6 44 14 123 20 205 3 44 8 91 10 105 14
81 20 321 20 745 0 421 -4 572 -19 755 -3 25 -7 81 -11 125 -6 78 -9 109 -19
190 -3 22 -8 63 -11 90 -5 51 -14 121 -21 165 -29 198 -49 323 -65 405 -11 55
-22 115 -25 134 -5 31 -8 44 -18 89 -2 9 -11 51 -20 92 -116 551 -316 1172
-560 1745 -89 208 -282 602 -386 790 -40 72 -80 144 -89 160 -120 219 -409
663 -595 915 -74 101 -236 312 -245 320 -4 3 -35 41 -71 85 -308 381 -741 826
-1135 1168 -16 14 -43 37 -60 52 -139 121 -505 406 -671 520 -47 33 -92 65
-98 70 -23 21 -386 255 -508 328 -900 538 -1872 924 -2878 1144 -153 33 -147
32 -210 43 -30 5 -66 12 -80 15 -14 3 -54 10 -90 15 -36 6 -76 13 -90 15 -26
5 -135 23 -180 30 -21 3 -74 10 -150 20 -8 1 -42 5 -75 9 -33 4 -78 9 -100 11
-165 19 -203 23 -315 30 -52 4 -113 9 -135 12 -46 6 -1091 14 -1096 9z"/>
</g>
</svg>
